<svg xmlns="http://www.w3.org/2000/svg" xmlns:xlink="http://www.w3.org/1999/xlink" viewBox="0 0 48 60" version="1.1" x="0px" y="0px"><title>2 -Dog Food- (Outline)</title><desc>Created with Sketch.</desc><g stroke="none" stroke-width="1" fill="none" fill-rule="evenodd"><g transform="translate(-245.000000, -340.000000)" fill="#000000"><g transform="translate(245.000000, 340.000000)"><path d="M29.0018,48.9995 L19.0018,48.9995 C18.4498,48.9995 18.0018,48.5515 18.0018,47.9995 C18.0018,47.4475 18.4498,46.9995 19.0018,46.9995 L29.0018,46.9995 C29.5538,46.9995 30.0018,47.4475 30.0018,47.9995 C30.0018,48.5515 29.5538,48.9995 29.0018,48.9995"></path><path d="M2.9486,1.999 C2.5906,1.999 2.3556,2.215 2.2606,2.323 C2.0006,2.616 1.9326,3.011 2.0766,3.38 L4.9336,10.692 C5.0056,10.876 5.0206,11.079 4.9776,11.272 C2.3826,22.985 2.3836,35.632 4.9836,48.863 C5.0196,49.051 5.0026,49.246 4.9316,49.424 L2.0746,56.624 C1.9386,56.972 1.9966,57.356 2.2336,57.647 C2.3386,57.776 2.6326,58.065 3.1156,57.985 L9.5296,56.976 C9.9296,56.907 10.3446,56.846 10.7546,56.785 C11.2196,56.716 11.6786,56.648 12.1266,56.567 C14.3066,56.175 15.9956,55.999 17.6026,55.999 L30.4016,55.999 C32.0076,55.999 33.6966,56.175 35.8776,56.567 C36.3246,56.648 36.7846,56.716 37.2486,56.785 C37.6596,56.846 38.0736,56.907 38.4866,56.978 L44.8756,57.983 C45.3696,58.066 45.6646,57.776 45.7696,57.647 C46.0066,57.356 46.0656,56.972 45.9276,56.62 L43.0726,49.424 C43.0016,49.247 42.9836,49.053 43.0196,48.866 C45.6606,35.206 45.6626,22.561 43.0286,11.283 C42.9816,11.086 42.9966,10.88 43.0706,10.692 L45.9266,3.381 C46.0716,3.011 46.0026,2.616 45.7436,2.323 C45.6326,2.198 45.3306,1.924 44.8646,2.019 L39.7066,4.035 C39.6686,4.05 39.6296,4.063 39.5896,4.073 C37.1836,4.688 34.7046,4.999 32.2236,4.999 L15.7796,4.999 C13.2986,4.999 10.8206,4.688 8.4136,4.073 C8.3746,4.063 8.3356,4.05 8.2976,4.035 L3.1386,2.019 C3.0726,2.005 3.0086,1.999 2.9486,1.999 M2.9446,60.001 C2.0776,60.001 1.2546,59.612 0.6826,58.91 C-0.0054,58.065 -0.1844,56.909 0.2136,55.891 L2.9646,48.959 C0.3896,35.673 0.3886,22.951 2.9596,11.137 L0.2136,4.108 C-0.2024,3.044 0.0076,1.852 0.7616,0.998 C1.4966,0.167 2.6166,-0.18 3.6836,0.093 C3.7236,0.103 3.7626,0.115 3.8006,0.13 L8.9686,2.15 C11.1946,2.714 13.4856,2.999 15.7796,2.999 L32.2236,2.999 C34.5176,2.999 36.8096,2.714 39.0356,2.15 L44.2026,0.13 C44.2406,0.115 44.2806,0.103 44.3196,0.093 C45.3866,-0.181 46.5066,0.166 47.2416,0.998 C47.9966,1.852 48.2066,3.044 47.7896,4.109 L45.0456,11.131 C47.6566,22.528 47.6546,35.251 45.0386,48.958 L47.7886,55.887 C48.1886,56.909 48.0086,58.065 47.3216,58.91 C46.6406,59.745 45.6086,60.137 44.5526,59.957 L38.1636,58.951 C37.7526,58.881 37.3526,58.822 36.9556,58.763 C36.4706,58.691 35.9906,58.62 35.5226,58.536 C33.4636,58.165 31.8846,57.999 30.4016,57.999 L17.6026,57.999 C16.1196,57.999 14.5406,58.165 12.4806,58.536 C12.0136,58.62 11.5326,58.691 11.0476,58.763 C10.6516,58.822 10.2516,58.881 9.8526,58.949 L3.4386,59.959 C3.2736,59.987 3.1086,60.001 2.9446,60.001"></path><path d="M31.0018,52.9995 L17.0018,52.9995 C16.4498,52.9995 16.0018,52.5515 16.0018,51.9995 C16.0018,51.4475 16.4498,50.9995 17.0018,50.9995 L31.0018,50.9995 C31.5538,50.9995 32.0018,51.4475 32.0018,51.9995 C32.0018,52.5515 31.5538,52.9995 31.0018,52.9995"></path><path d="M19.3763,20.1665 C19.3333,20.1665 19.2933,20.1725 19.2563,20.1845 C18.8703,20.3115 18.5503,21.2375 18.9323,22.3965 C19.3143,23.5565 20.1183,24.1095 20.5083,23.9835 C20.8953,23.8555 21.2143,22.9305 20.8323,21.7715 L20.8323,21.7705 C20.4863,20.7205 19.7923,20.1665 19.3763,20.1665 M20.3883,26.0025 C19.0093,26.0025 17.6273,24.8255 17.0333,23.0225 C16.3313,20.8925 17.0333,18.8115 18.6313,18.2845 C20.2313,17.7605 22.0303,19.0165 22.7313,21.1455 C23.4333,23.2755 22.7313,25.3565 21.1343,25.8835 C20.8893,25.9635 20.6383,26.0025 20.3883,26.0025"></path><path d="M14.6146,26.1665 C14.5716,26.1665 14.5316,26.1725 14.4946,26.1845 C14.1086,26.3125 13.7896,27.2375 14.1716,28.3965 C14.5536,29.5565 15.3566,30.1115 15.7466,29.9835 C16.1336,29.8565 16.4526,28.9315 16.0716,27.7715 C15.7246,26.7205 15.0306,26.1665 14.6146,26.1665 M15.6266,32.0025 C14.2466,32.0025 12.8656,30.8255 12.2716,29.0215 C11.5696,26.8925 12.2716,24.8115 13.8696,24.2845 C15.4696,23.7615 17.2686,25.0165 17.9706,27.1455 L17.9706,27.1455 C18.6726,29.2755 17.9696,31.3565 16.3726,31.8835 C16.1276,31.9635 15.8766,32.0025 15.6266,32.0025"></path><path d="M28.6273,20.1665 C28.2113,20.1665 27.5173,20.7205 27.1713,21.7705 L27.1713,21.7715 C26.7893,22.9305 27.1083,23.8555 27.4953,23.9835 C27.8813,24.1095 28.6893,23.5565 29.0713,22.3965 C29.4533,21.2375 29.1333,20.3115 28.7463,20.1845 C28.7103,20.1725 28.6703,20.1665 28.6273,20.1665 M27.6153,26.0025 C27.3653,26.0025 27.1153,25.9645 26.8703,25.8835 C25.2723,25.3565 24.5703,23.2755 25.2723,21.1455 C25.9733,19.0165 27.7763,17.7575 29.3723,18.2845 C30.9703,18.8115 31.6723,20.8925 30.9703,23.0215 C30.3763,24.8255 28.9943,26.0025 27.6153,26.0025"></path><path d="M31.9325,27.7715 C31.5515,28.9315 31.8705,29.8565 32.2575,29.9835 C32.6425,30.1105 33.4505,29.5565 33.8325,28.3965 C34.2145,27.2375 33.8955,26.3125 33.5085,26.1845 C33.1235,26.0635 32.3145,26.6125 31.9325,27.7715 M32.3765,32.0025 C32.1265,32.0025 31.8765,31.9645 31.6315,31.8835 C30.0335,31.3565 29.3315,29.2755 30.0335,27.1465 L30.0335,27.1455 C30.7345,25.0165 32.5365,23.7575 34.1335,24.2845 C35.7315,24.8115 36.4335,26.8925 35.7315,29.0225 C35.1385,30.8255 33.7565,32.0025 32.3765,32.0025"></path><path d="M24.0018,28.002 C23.9408,28.002 23.8558,28.021 23.7948,28.113 L20.0378,33.748 C20.0248,33.768 19.9838,33.828 20.0298,33.914 C20.0758,34 20.1488,34 20.1728,34 L27.8768,34 C27.8998,34 27.9598,34 27.9978,33.927 C28.0368,33.855 28.0038,33.805 27.9908,33.786 L24.2088,28.113 C24.1478,28.021 24.0628,28.002 24.0018,28.002 M27.8768,36 L20.1728,36 C19.3738,36 18.6438,35.562 18.2668,34.858 C17.8898,34.154 17.9308,33.303 18.3738,32.638 L22.1308,27.003 C22.5488,26.377 23.2478,26.002 24.0018,26.002 C24.7558,26.002 25.4548,26.377 25.8728,27.003 L29.6548,32.677 C30.0928,33.334 30.1338,34.175 29.7608,34.871 C29.3888,35.567 28.6668,36 27.8768,36"></path></g></g></g></svg>