<svg xmlns="http://www.w3.org/2000/svg" xmlns:xlink="http://www.w3.org/1999/xlink" version="1.1" x="0px" y="0px" viewBox="0 0 100 100" style="enable-background:new 0 0 100 100;" xml:space="preserve"><g><path d="M86.4,50c3.7-2.6,6.1-6.4,6.8-10.8l1-6.1l-16.5-2.7l2.6-3.1l0.1-0.1c1.6-2.5,0.8-5.8-1.6-7.3c-2.4-1.6-5.7-0.9-7.3,1.6   l-3.3,4.4l0.3-4.9c0.3-2.9-1.8-5.6-4.7-5.9c-1.4-0.2-2.8,0.2-3.9,1.1c-1.1,0.9-1.8,2.1-2,3.6l-0.6,9.1c0,0,0,0.1,0,0.1l-2.4,22.3   H15.2c-0.6-2.1-2.5-3.7-4.8-3.7c-2.7,0-5,2.2-5,5s2.2,5,5,5c2.1,0,3.9-1.4,4.6-3.2h5.4l-3.6,32.7h11.3L30,68.3h5.6l-2,18.5h11.3   l2-18.5H53l-2,18.5h10.7l2.1-18.1h14.8L77.9,75h1.4c-1.4,1.2-2.3,3-2.3,5c0,3.7,3,6.6,6.6,6.6c3.7,0,6.6-3,6.6-6.6   c0-2-0.9-3.8-2.3-5h1.2l1.7-17.2H81l0.6-5.5C83.2,51.8,84.9,51.1,86.4,50z M90.2,38.7c-0.1,0.3-0.1,0.6-0.2,0.9   c-0.9-0.4-1.7-0.9-2.3-1.7c-0.6-0.9-0.9-1.9-0.9-3l3.9,0.6L90.2,38.7z M73.9,23.2l0.1-0.1c0.7-1.1,2.1-1.4,3.2-0.7   c1.1,0.7,1.4,2.1,0.7,3.1l-3.7,4.4l-4.9-0.8L73.9,23.2z M61.7,18.4c0.5-0.4,1.1-0.6,1.7-0.5c1.3,0.1,2.2,1.3,2,2.6l-0.5,7.8   l-4.6-0.7l0.5-7.7C60.9,19.3,61.2,18.8,61.7,18.4z M10.4,54.4c-1.1,0-2-0.9-2-2s0.9-2,2-2s2,0.9,2,2S11.5,54.4,10.4,54.4z    M42.2,83.8H37l1.7-15.5h5.3L42.2,83.8z M27.3,65.3l-1.9,18.5h-5.2l3.3-29.7h31.1l-1.2,11.2H27.3z M87.6,60.8L86.4,72h-5.2l0.7-6.3   H61.1L59,83.8h-4.7l5.7-53.2l5.8,0.9c0.1,0,0.2,0.1,0.4,0.1c0,0,0.1,0,0.1,0c0,0,0,0,0,0l17.5,2.8c-0.1,1.9,0.4,3.7,1.5,5.2   c0.9,1.3,2.2,2.3,3.7,2.8c-1,2-2.5,3.7-4.4,5.1c-3,2.1-6.6,2.8-10.2,2.1c-0.4-0.1-9.2-2-7.7-9.9c0.2-0.8-0.4-1.6-1.2-1.8   c-0.8-0.2-1.6,0.4-1.8,1.2c-1.6,8.6,5.9,12.5,10.1,13.4c1.1,0.2,2.2,0.3,3.3,0.3c0.5,0,0.9,0,1.4-0.1l-0.9,7.9H87.6z"></path><ellipse transform="matrix(0.2781 -0.9605 0.9605 0.2781 15.6267 96.4716)" cx="72" cy="37.8" rx="2.2" ry="2.2"></ellipse></g></svg>