<svg xmlns="http://www.w3.org/2000/svg" xmlns:xlink="http://www.w3.org/1999/xlink" version="1.1" x="0px" y="0px" viewBox="0 0 100 100" style="enable-background:new 0 0 100 100;" xml:space="preserve"><g><path d="M94.5,60.9L78.7,61l1.7-2.8l0.1-0.2c0.6-1.3,0.6-2.7,0.1-4.1c-0.5-1.3-1.5-2.4-2.8-3c-1.3-0.6-2.7-0.6-4.1-0.1   c-1.3,0.5-2.3,1.5-2.9,2.7l-2.7,4.8l-0.4-4.9c0-1.4-0.6-2.7-1.7-3.7s-2.4-1.5-3.8-1.4c-2.9,0.1-5.2,2.5-5.2,5.5l0.6,7.2   c-3.5-3.4-8.2-5.4-13.4-5.4h-2.1c-5.1,0.1-9.4,1.1-13,2.7c-0.2,0-0.4,0.1-0.5,0.3c-8.6,4.1-13.1,11.5-15.3,17l-0.6-6.9   c1.7-0.8,2.9-2.5,2.9-4.5c0-2.7-2.2-5-5-5c-2.7,0-5,2.2-5,5c0,2.4,1.8,4.5,4.1,4.9L11,83.7l0.1,0l0,0.2h28.5c0,0,0,0,0,0   c0,0,0,0,0,0h31.2c0,0,0,0,0,0c0.1,0,0.2,0,0.3,0c0,0,0,0,0,0c0.1,0,0.1,0,0.2-0.1c0,0,0.1,0,0.1,0c0.1,0,0.1-0.1,0.1-0.1   c0,0,0.1,0,0.1-0.1c0,0,0.1-0.1,0.1-0.1c0,0,0.1-0.1,0.1-0.1c0,0,0.1-0.1,0.1-0.1c0,0,0.1-0.1,0.1-0.1c0,0,0.1-0.1,0.1-0.1   c0,0,0-0.1,0.1-0.1c0,0,0-0.1,0-0.1c0-0.1,0-0.1,0-0.2c0,0,0-0.1,0-0.1c0-0.1,0-0.1,0-0.2c0,0,0,0,0,0c0,0,0-0.1,0-0.1c0,0,0,0,0,0   c2.7,1.2,5.3,1.3,5.5,1.3c0.2,0,0.3,0,0.5,0c4.3,0,8.3-1.6,11.4-4.7c3.2-3.1,5-7.3,4.9-11.8L94.5,60.9z M91.5,67.1c0,0.3,0,0.6,0,1   c-2-0.4-3.6-2.1-3.9-4.1l4,0L91.5,67.1z M73.4,55.1l0.1-0.1c0.3-0.6,0.7-1,1.3-1.2c0.6-0.2,1.2-0.2,1.8,0.1s1,0.7,1.2,1.3   c0.2,0.6,0.2,1.2,0,1.7l-2.6,4.3l-5.1,0L73.4,55.1z M62.4,51.3c0.6,0,1.2,0.2,1.7,0.6c0.4,0.4,0.7,1,0.7,1.7l0.6,7.5l-4.6,0   l-0.6-7.5C60.1,52.4,61.1,51.4,62.4,51.3z M42.3,58.6h2.1c8.4,0,15.4,6.5,16.1,14.7h-1.9c-0.8,0-1.5,0.7-1.5,1.5s0.7,1.5,1.5,1.5   h9.5l0.9,4.6H40.8l-1.4-7.6h-5.5c1.5-1.7,2.5-3.9,2.5-6.3c0-2.8-1.2-5.3-3.2-7C35.7,59.2,38.8,58.7,42.3,58.6z M8.7,64.2   c0-1.1,0.9-2,2-2c1.1,0,2,0.9,2,2s-0.9,2-2,2C9.6,66.2,8.7,65.3,8.7,64.2z M29.6,61.4c2.2,1,3.6,3.2,3.6,5.7c0,3.2-2.5,6-5.7,6.2   c0,0-0.1,0-0.1,0h0c-0.8,0-1.5,0.7-1.5,1.5s0.7,1.5,1.5,1.5h9.5l0.9,4.6h-23C15.8,76.8,19.4,66.4,29.6,61.4z M87.5,76.7   c-2.6,2.6-6.1,3.9-9.7,3.8c0,0-3.3-0.1-6-1.9c-0.1,0-0.1-0.1-0.2-0.1l-1-5.2h-7.1c-0.3-3.4-1.4-6.5-3.1-9.2L84.5,64   c0.4,3.5,3,6.4,6.5,7C90.3,73.2,89.1,75.1,87.5,76.7z"></path><path d="M76.5,67c-0.6,0-1,0.5-1,1c0,0.5-0.1,1-0.5,1.3c-0.3,0.4-0.8,0.6-1.3,0.6c-1,0.1-1.9-0.7-1.9-1.7c0-0.6-0.5-1-1-1   c-0.6,0-1,0.5-1,1c0.1,2,1.8,3.6,3.8,3.6c0.1,0,0.1,0,0.2,0c1,0,2-0.5,2.6-1.2c0.7-0.8,1-1.7,1-2.8C77.5,67.4,77,66.9,76.5,67z"></path><circle cx="82.4" cy="76.2" r="1.6"></circle><path d="M69.8,17.9l2.6-0.6l-2.9,4.4c-0.3,0.5-0.3,1.2,0,1.7c0.3,0.4,0.7,0.6,1.2,0.6c0.1,0,0.2,0,0.3,0l6.4-1.5   c0.8-0.2,1.3-1,1.1-1.8c-0.2-0.8-1-1.3-1.8-1.1l-2.8,0.6l2.9-4.4c0.3-0.5,0.3-1.2,0-1.7c-0.4-0.5-1-0.7-1.6-0.6L69.1,15   c-0.8,0.2-1.3,1-1.1,1.8C68.2,17.6,69,18.1,69.8,17.9z"></path><path d="M76.2,30.9c0.5,0.7,1.4,0.8,2.1,0.3l2.1-1.6l-0.9,5.2c-0.1,0.6,0.2,1.2,0.7,1.5c0.2,0.2,0.5,0.2,0.8,0.2   c0.3,0,0.6-0.1,0.9-0.3l5.3-3.9c0.7-0.5,0.8-1.4,0.3-2.1c-0.5-0.7-1.4-0.8-2.1-0.3l-2.3,1.7l0.9-5.2c0.1-0.6-0.2-1.2-0.7-1.5   c-0.5-0.3-1.2-0.3-1.7,0.1l-5.1,3.8C75.8,29.3,75.7,30.2,76.2,30.9z"></path><path d="M66.3,43.5l6.2,2.2c0.2,0.1,0.3,0.1,0.5,0.1c0.6,0,1.2-0.4,1.4-1c0.3-0.8-0.1-1.6-0.9-1.9l-2.7-0.9l4.8-2.2   c0.6-0.3,0.9-0.8,0.9-1.4s-0.4-1.1-1-1.3l-6-2.1c-0.8-0.3-1.6,0.1-1.9,0.9c-0.3,0.8,0.1,1.6,0.9,1.9l2.5,0.9l-4.8,2.2   c-0.6,0.3-0.9,0.8-0.9,1.4S65.7,43.3,66.3,43.5z"></path></g></svg>